PathFileType	4	(X/Y/Z)	 s11c0402.trc
DataRate	CameraRate	NumFrames	NumMarkers	Units	OrigDataRate	OrigDataStartFrame	OrigNumFrames
200	200	7	48	mm	200	1751	2000
Frame#	Time	racr			lacr			c7			jug			rlel			rdr			llel			ldr			s2			lic			ric			lasi			rasi			rpsi			lpsi			rgt			lgt			rth1			rth2			rth3			rth4			rlfc			rmfc			rsh1			rsh2			rsh3			rsh4			rlmal			rcal			rtoe			rmt5			lth1			lth2			lth4			lth3			llfc			lmfc			llmal			lcal			lmt5			lsh1			lsh2			lsh3			lsh4			ltoe			SBIKE			LBIKE			RBIKE			
		X1	Y1	Z1	X2	Y2	Z2	X3	Y3	Z3	X4	Y4	Z4	X5	Y5	Z5	X6	Y6	Z6	X7	Y7	Z7	X8	Y8	Z8	X9	Y9	Z9	X10	Y10	Z10	X11	Y11	Z11	X12	Y12	Z12	X13	Y13	Z13	X14	Y14	Z14	X15	Y15	Z15	X16	Y16	Z16	X17	Y17	Z17	X18	Y18	Z18	X19	Y19	Z19	X20	Y20	Z20	X21	Y21	Z21	X22	Y22	Z22	X23	Y23	Z23	X24	Y24	Z24	X25	Y25	Z25	X26	Y26	Z26	X27	Y27	Z27	X28	Y28	Z28	X29	Y29	Z29	X30	Y30	Z30	X31	Y31	Z31	X32	Y32	Z32	X33	Y33	Z33	X34	Y34	Z34	X35	Y35	Z35	X36	Y36	Z36	X37	Y37	Z37	X38	Y38	Z38	X39	Y39	Z39	X40	Y40	Z40	X41	Y41	Z41	X42	Y42	Z42	X43	Y43	Z43	X44	Y44	Z44	X45	Y45	Z45	X46	Y46	Z46	X47	Y47	Z47	X48	Y48	Z48	
1751	8.7550	664.738657	1397.394414	-89.573192	682.379215	1373.902162	-434.987329	629.830810	1489.391800	-267.927024	633.405325	1311.676679	-264.332489	575.959197	1148.723722	34.052871	770.864125	964.684580	-38.164636	569.269450	1128.589622	-604.972413	769.571465	951.242288	-443.286344	47.903633	1291.893335	-275.651366	262.715983	1232.794528	-476.921499	271.757831	1278.816290	-83.440045	280.621694	1157.832578	-439.002250	276.850137	1214.339049	-124.954688	107.183743	1362.192711	-235.498180	102.647167	1341.536730	-327.854914	214.798114	1174.271126	-46.034302	124.289233	1124.369135	-464.178555	329.641510	1088.106225	-44.253275	413.144178	1058.047808	-58.788814	469.072428	991.056149	-67.889611	429.918163	1085.798777	-77.385495	548.358483	917.116065	-84.464942	538.061703	890.798261	-213.073041	433.929370	803.825727	-70.255894	382.186864	734.131407	-87.496373	303.382806	696.809725	-87.104322	399.877030	718.041490	-120.854068	188.525363	625.200042	-96.472797	123.524041	645.683135	-144.146773	341.800054	458.638852	-135.959610	268.211011	476.464761	-67.761597	152.939951	981.728887	-479.121036	178.340900	901.080905	-468.345674	215.238900	901.895397	-463.461326	158.164748	814.504219	-452.783784	171.065463	679.958773	-416.671083	174.874019	670.654386	-288.403623	157.996207	250.313352	-395.460866	102.836723	216.664301	-366.460327	300.441745	158.200576	-440.559472	151.805786	554.713837	-437.798815	177.376064	474.160237	-425.441630	160.506913	387.053340	-421.761307	208.452951	477.666538	-402.101267	399.189839	173.828073	-374.488854	-204.319603	954.667955	-262.643742	1.426566	82.469918	-461.017960	-15.141700	81.223959	-62.575672	
1752	8.7600	663.376128	1397.528665	-89.378080	681.126356	1374.030585	-434.799914	628.303061	1489.480623	-267.671304	631.992342	1311.929477	-264.038885	575.697727	1148.591716	34.407053	770.818845	964.556794	-37.878011	568.831209	1128.363280	-604.843706	769.536298	951.202145	-443.323929	46.547020	1291.751057	-275.938113	261.611612	1232.677701	-476.851014	270.427336	1278.644520	-83.585670	279.543640	1157.764952	-438.923785	275.612214	1214.100436	-124.894242	105.732274	1361.934859	-235.689377	101.228149	1341.363711	-328.064147	213.288028	1173.983313	-46.194553	123.368166	1123.897113	-464.313952	327.888477	1087.539347	-44.294155	411.407329	1057.359432	-58.671873	467.248498	990.280963	-67.697209	428.278230	1085.090451	-77.217217	546.534007	916.303401	-84.102325	536.294877	890.322698	-212.884823	431.986522	803.446875	-69.897368	380.238957	733.747463	-87.308280	301.350143	696.436237	-86.937377	397.958607	717.558522	-120.612010	186.524352	624.770935	-96.418032	121.693564	645.154467	-144.324292	340.104535	458.576268	-136.010286	266.481321	476.215607	-67.789348	152.643157	981.500426	-478.959858	178.278753	900.889453	-468.144962	215.146702	901.788690	-463.139921	158.314379	814.280435	-452.624628	171.347496	679.781320	-416.648982	174.873127	670.465862	-288.353162	159.167628	250.020959	-395.360576	104.070929	216.180220	-366.445250	301.931736	158.528660	-440.467476	152.428484	554.537845	-437.803127	178.159914	474.006629	-425.333477	161.511101	386.883758	-421.760771	209.187856	477.644512	-402.069925	400.591286	174.636667	-374.369471	-204.320289	954.669138	-262.655486	1.401539	82.468490	-461.011615	-15.136278	81.222096	-62.559001	
1753	8.7650	662.024150	1397.626230	-89.298187	679.912972	1374.159768	-434.550494	626.776835	1489.656095	-267.484614	630.734954	1312.100108	-263.643024	575.461160	1148.506962	34.706393	770.729507	964.432324	-37.585978	568.349153	1128.155925	-604.674038	769.513542	951.135333	-443.363518	44.944298	1291.373499	-276.051671	260.495997	1232.549340	-476.865442	269.059970	1278.518236	-83.681530	278.463501	1157.654859	-438.746510	274.391162	1213.911001	-124.840750	104.200843	1361.778817	-235.777584	99.744725	1341.206260	-328.228899	211.772835	1173.581758	-46.377760	122.544722	1123.499251	-464.468090	326.143700	1086.966684	-44.285682	409.654785	1056.628003	-58.525046	465.410926	989.527623	-67.579968	426.680607	1084.292400	-76.895248	544.715906	915.768317	-83.895779	534.591863	889.892564	-212.633645	430.027455	803.135116	-69.558962	378.145452	733.316788	-87.175189	299.349406	696.133809	-86.804054	396.062205	717.148657	-120.334600	184.650431	624.357088	-96.454576	119.724448	644.665102	-144.326126	338.514248	458.523721	-136.086745	264.906848	475.931738	-67.808075	152.358322	981.275471	-478.795318	178.237910	900.730229	-467.926626	215.085087	901.751472	-462.843225	158.484003	814.057558	-452.486209	171.705400	679.639834	-416.577012	174.942561	670.314135	-288.287266	160.246213	249.859668	-395.317512	105.281520	215.741170	-366.379413	303.396036	158.821480	-440.379541	153.140821	554.320575	-437.726481	178.977071	473.918122	-425.285747	162.502955	386.676828	-421.747582	209.951035	477.481421	-401.828606	401.918410	175.394101	-374.358178	-204.319037	954.673795	-262.626658	1.410380	82.462903	-461.012146	-15.128931	81.234561	-62.568379	
1754	8.7700	660.639843	1397.807975	-89.110159	678.695829	1374.337070	-434.350693	625.238864	1489.874910	-267.463068	629.335643	1312.232257	-263.466536	575.224821	1148.457200	35.041755	770.622338	964.309626	-37.315043	567.789084	1127.940867	-604.468538	769.515371	951.032977	-443.585449	43.382923	1291.141217	-276.284541	259.391281	1232.436398	-476.847052	267.697889	1278.487664	-83.691691	277.392538	1157.592644	-438.592725	273.120257	1213.789519	-124.702991	103.768712	1361.455453	-236.690878	98.093622	1341.109877	-328.528020	210.251057	1173.192321	-46.542041	121.631668	1123.110232	-464.616824	324.459522	1086.488327	-44.207686	407.882430	1056.288393	-57.776645	463.587430	988.766534	-67.393387	425.029631	1083.755815	-76.523056	542.968341	915.169269	-83.326023	532.962849	889.480117	-212.350074	427.947075	802.652047	-70.157580	376.256857	732.960581	-86.961430	297.397596	695.870295	-86.654309	394.223346	716.770610	-120.063264	182.670006	623.883125	-96.418523	117.806030	644.127444	-144.335187	336.948296	458.402974	-136.147116	263.296069	475.725666	-67.810002	152.067933	981.075888	-478.632879	178.207350	900.603225	-467.741524	215.033298	901.738343	-462.590178	158.701221	813.844087	-452.361521	172.085697	679.467133	-416.534959	175.103254	670.168223	-288.236018	161.315898	249.727804	-395.244292	106.342791	215.369304	-366.338436	304.765829	159.208800	-440.367947	153.814377	554.149155	-437.630744	179.784500	473.751254	-425.212673	163.457757	386.558441	-421.751979	210.680571	477.430551	-401.678737	403.226458	176.093397	-374.262404	-204.328394	954.664080	-262.617074	1.422724	82.482884	-461.020455	-15.138783	81.233537	-62.565626	
1755	8.7750	659.151967	1397.987863	-89.036382	677.823232	1374.602967	-433.906278	623.669170	1489.975609	-267.178195	628.097826	1312.286542	-263.142747	574.970326	1148.414210	35.367136	770.506274	964.178523	-37.053504	567.329326	1127.746749	-604.339452	769.484344	950.860535	-443.890219	41.888412	1290.851568	-276.414994	258.298460	1232.368410	-476.916942	266.187671	1278.482176	-83.768960	276.352456	1157.539839	-438.462332	271.823184	1213.684533	-124.653577	101.171000	1361.331912	-236.168929	96.781867	1340.699061	-328.672161	208.657322	1172.779250	-46.664373	120.814747	1122.803551	-464.802376	322.676376	1085.672392	-44.189222	406.208715	1055.169964	-58.101404	461.814648	987.976498	-67.103621	423.369751	1083.074535	-76.104687	541.209974	914.607074	-82.912998	531.375456	889.106547	-212.155984	426.117219	802.363127	-69.878860	374.389050	732.715125	-86.790086	295.523383	695.554802	-86.519165	392.222503	716.608381	-119.408046	180.888768	623.499940	-96.446646	115.959238	643.597064	-144.288719	335.499357	458.337324	-136.167391	261.781149	475.447461	-67.867551	151.820046	981.061860	-478.555220	178.168040	900.521520	-467.612577	214.983266	901.775926	-462.406620	158.933094	813.682201	-452.287861	172.465951	679.340101	-416.455307	175.314749	670.042214	-288.173289	162.316162	249.539786	-395.191362	107.399744	214.801650	-366.353423	305.993796	159.556976	-440.362433	154.510956	554.026505	-437.553169	180.574230	473.642727	-425.129727	164.373300	386.418754	-421.715998	211.423498	477.391229	-401.478290	404.446471	176.830238	-374.247627	-204.336904	954.650903	-262.630082	1.421194	82.472950	-460.989307	-15.125080	81.202905	-62.565755	
1756	8.7800	657.754114	1398.237492	-88.874006	676.529805	1374.826589	-433.768547	622.088115	1490.050249	-266.866495	626.669491	1312.413565	-262.915142	574.741856	1148.381327	35.680200	770.368712	964.028731	-36.831234	566.830068	1127.548995	-604.162663	769.415256	950.660875	-444.192051	40.783914	1290.494587	-276.977005	257.208080	1232.295687	-476.899387	264.670400	1278.514293	-83.898544	275.290587	1157.483244	-438.266140	270.595913	1213.595162	-124.558912	99.758225	1361.001131	-236.498746	95.290334	1340.469927	-328.842189	207.057237	1172.372368	-46.830983	119.958312	1122.398263	-464.942336	320.982221	1085.153860	-44.052061	404.405815	1054.872509	-57.332413	460.034297	987.203719	-66.906410	421.737455	1082.386938	-75.738879	539.455006	914.036700	-82.700132	529.928436	888.771094	-211.865587	424.297632	802.043559	-69.597570	372.151784	732.419710	-86.763362	293.700848	695.214822	-86.378358	390.684551	715.955597	-118.550245	179.123304	623.031607	-96.395853	114.224042	643.104557	-144.330734	334.134105	458.252190	-136.113223	260.323732	475.312274	-67.801342	151.533711	980.916428	-478.447955	178.151148	900.439184	-467.435577	214.941967	901.818697	-462.216940	159.182632	813.545601	-452.201753	172.857581	679.231843	-416.380622	175.561016	669.898359	-288.120181	163.239667	249.318294	-395.185361	108.401081	214.404036	-366.358992	307.263035	159.895207	-440.269623	155.147354	553.838356	-437.504000	181.312371	473.515663	-425.037257	165.243146	386.229246	-421.684394	212.080878	477.288300	-401.319688	405.608526	177.524411	-374.174265	-204.316229	954.660219	-262.621618	1.431176	82.477468	-461.005467	-15.117921	81.225751	-62.568222	
1757	8.7850	656.345759	1398.431566	-88.759773	674.881221	1374.905794	-433.710330	620.507320	1490.151959	-266.599328	625.422620	1312.482683	-262.625214	574.524470	1148.344356	35.950322	770.253479	963.886933	-36.614081	566.308181	1127.413138	-603.994817	769.380735	950.466718	-444.489659	39.012869	1289.999114	-277.037422	256.081838	1232.190366	-476.951762	263.108105	1278.651716	-83.883976	274.234489	1157.430450	-438.145192	269.263187	1213.560453	-124.331815	99.043913	1360.771679	-237.334035	93.615529	1340.366254	-329.209537	205.444089	1171.929807	-46.966566	119.110800	1122.082199	-465.065528	319.267075	1084.533909	-43.860649	402.703165	1054.177733	-56.900819	458.279644	986.465901	-66.583637	420.132544	1081.668396	-75.326880	537.741350	913.439498	-82.315432	528.498633	888.548715	-211.642481	422.475590	801.787867	-69.337052	370.642840	732.122227	-86.428848	291.970041	694.925443	-86.304417	388.863731	715.782187	-118.843453	177.513659	622.646048	-96.396418	112.499566	642.550236	-144.399437	332.857330	458.264099	-136.161870	259.073449	474.975367	-67.921462	151.234131	980.782517	-478.388669	178.112900	900.387986	-467.346520	214.918818	901.910041	-462.077555	159.455856	813.373738	-452.089280	173.251050	679.032951	-416.200425	176.368549	669.171603	-288.815808	164.156725	249.133207	-395.123478	109.372036	214.089340	-366.289085	308.376954	160.202046	-440.180823	155.772957	553.700166	-437.480392	182.096152	473.168331	-424.800379	166.037183	386.136061	-421.656214	212.743955	477.329258	-401.392116	406.682883	178.127829	-374.143281	-204.303758	954.671130	-262.609966	1.433933	82.474992	-461.010138	-15.120759	81.217102	-62.565617	
